<mxfile host="app.diagrams.net" modified="2024-02-22T23:20:24.145Z" agent="Mozilla/5.0 (Windows NT 10.0; Win64; x64) AppleWebKit/537.36 (KHTML, like Gecko) Chrome/121.0.0.0 Safari/537.36" etag="o0gejBDpy4UwAOxfxl5C" scale="1" border="0" version="23.1.6" type="device">
  <diagram id="C5RBs43oDa-KdzZeNtuy" name="Page-1">
    <mxGraphModel dx="1700" dy="947" grid="1" gridSize="10" guides="1" tooltips="1" connect="1" arrows="1" fold="1" page="1" pageScale="1" pageWidth="827" pageHeight="1169" math="0" shadow="0">
      <root>
        <mxCell id="WIyWlLk6GJQsqaUBKTNV-0" />
        <mxCell id="WIyWlLk6GJQsqaUBKTNV-1" parent="WIyWlLk6GJQsqaUBKTNV-0" />
        <mxCell id="_BHGbHKsS6Eedb4s3Qyd-1" value="Start/Previous Step" style="strokeWidth=2;html=1;shape=mxgraph.flowchart.terminator;whiteSpace=wrap;spacing=10;spacingTop=0;spacingBottom=0;spacingLeft=0;spacingRight=0;fontSize=14;autosize=0;fontFamily=Helvetica;" parent="WIyWlLk6GJQsqaUBKTNV-1" vertex="1">
          <mxGeometry x="38" y="230" width="212" height="60" as="geometry" />
        </mxCell>
        <mxCell id="_BHGbHKsS6Eedb4s3Qyd-2" value="" style="endArrow=classic;html=1;rounded=0;exitX=0.5;exitY=1;exitDx=0;exitDy=0;exitPerimeter=0;entryX=0.5;entryY=0;entryDx=0;entryDy=0;fontSize=14;spacing=10;spacingTop=0;spacingLeft=0;spacingBottom=0;spacingRight=0;shadow=0;fontFamily=Helvetica;" parent="WIyWlLk6GJQsqaUBKTNV-1" source="_BHGbHKsS6Eedb4s3Qyd-1" target="_BHGbHKsS6Eedb4s3Qyd-10" edge="1">
          <mxGeometry width="50" height="50" relative="1" as="geometry">
            <mxPoint x="120" y="394" as="sourcePoint" />
            <mxPoint x="144" y="274" as="targetPoint" />
          </mxGeometry>
        </mxCell>
        <mxCell id="Iv-Azc3ycYnpW8q1ksQa-0" value="" style="edgeStyle=orthogonalEdgeStyle;rounded=0;orthogonalLoop=1;jettySize=auto;html=1;" edge="1" parent="WIyWlLk6GJQsqaUBKTNV-1" source="_BHGbHKsS6Eedb4s3Qyd-10" target="_BHGbHKsS6Eedb4s3Qyd-13">
          <mxGeometry relative="1" as="geometry" />
        </mxCell>
        <mxCell id="_BHGbHKsS6Eedb4s3Qyd-10" value="&lt;div&gt;&lt;span id=&quot;docs-internal-guid-c15a8d08-7fff-c43d-7457-2aff1bdf36c7&quot;&gt;&lt;/span&gt;Import and store Order&lt;/div&gt;&lt;div style=&quot;font-size: 14px;&quot;&gt;&lt;/div&gt;" style="shape=parallelogram;html=1;strokeWidth=2;perimeter=parallelogramPerimeter;whiteSpace=wrap;rounded=1;arcSize=12;size=0.23;spacingLeft=30;spacingRight=30;spacing=10;fontSize=14;spacingTop=0;spacingBottom=0;fontFamily=Helvetica;" parent="WIyWlLk6GJQsqaUBKTNV-1" vertex="1">
          <mxGeometry x="-12" y="320" width="312" height="80" as="geometry" />
        </mxCell>
        <mxCell id="_BHGbHKsS6Eedb4s3Qyd-17" style="edgeStyle=orthogonalEdgeStyle;rounded=0;orthogonalLoop=1;jettySize=auto;html=1;entryX=0;entryY=0.5;entryDx=0;entryDy=0;spacing=10;spacingTop=0;spacingBottom=0;spacingLeft=0;spacingRight=0;fontSize=14;shadow=0;fontFamily=Helvetica;" parent="WIyWlLk6GJQsqaUBKTNV-1" source="_BHGbHKsS6Eedb4s3Qyd-13" target="_BHGbHKsS6Eedb4s3Qyd-23" edge="1">
          <mxGeometry relative="1" as="geometry">
            <mxPoint x="280" y="500" as="targetPoint" />
          </mxGeometry>
        </mxCell>
        <mxCell id="_BHGbHKsS6Eedb4s3Qyd-18" value="No" style="edgeLabel;html=1;align=center;verticalAlign=middle;resizable=0;points=[];spacing=10;spacingTop=0;spacingBottom=0;spacingLeft=0;spacingRight=0;fontSize=14;fontFamily=Helvetica;" parent="_BHGbHKsS6Eedb4s3Qyd-17" vertex="1" connectable="0">
          <mxGeometry x="0.0678" relative="1" as="geometry">
            <mxPoint x="-4" as="offset" />
          </mxGeometry>
        </mxCell>
        <mxCell id="Uk-PvzAj1wYRCCwDQagz-2" value="" style="edgeStyle=orthogonalEdgeStyle;rounded=0;orthogonalLoop=1;jettySize=auto;html=1;fontSize=14;shadow=0;fontFamily=Helvetica;" parent="WIyWlLk6GJQsqaUBKTNV-1" source="_BHGbHKsS6Eedb4s3Qyd-13" target="Uk-PvzAj1wYRCCwDQagz-1" edge="1">
          <mxGeometry relative="1" as="geometry" />
        </mxCell>
        <mxCell id="6TtYuv1KE7rAj_bC1u9V-0" value="Yes" style="edgeLabel;html=1;align=center;verticalAlign=middle;resizable=0;points=[];fontSize=14;" parent="Uk-PvzAj1wYRCCwDQagz-2" vertex="1" connectable="0">
          <mxGeometry x="-0.4" y="3" relative="1" as="geometry">
            <mxPoint x="-3" y="3" as="offset" />
          </mxGeometry>
        </mxCell>
        <mxCell id="_BHGbHKsS6Eedb4s3Qyd-13" value="&lt;p style=&quot;line-height: 120%;&quot;&gt;Is “customerTotal” &amp;lt; 2?&lt;br style=&quot;font-size: 14px;&quot;&gt;&lt;/p&gt;" style="rhombus;whiteSpace=wrap;html=1;strokeWidth=2;rounded=1;arcSize=12;verticalAlign=middle;horizontal=1;spacing=10;spacingBottom=0;spacingTop=0;spacingLeft=15;spacingRight=15;fontSize=14;fontFamily=Helvetica;" parent="WIyWlLk6GJQsqaUBKTNV-1" vertex="1">
          <mxGeometry x="74" y="430" width="140" height="140" as="geometry" />
        </mxCell>
        <mxCell id="_BHGbHKsS6Eedb4s3Qyd-26" style="edgeStyle=orthogonalEdgeStyle;rounded=0;orthogonalLoop=1;jettySize=auto;html=1;entryX=0;entryY=0.5;entryDx=0;entryDy=0;spacing=10;spacingTop=0;spacingBottom=0;spacingLeft=0;spacingRight=0;fontSize=14;shadow=0;fontFamily=Helvetica;" parent="WIyWlLk6GJQsqaUBKTNV-1" source="_BHGbHKsS6Eedb4s3Qyd-28" target="_BHGbHKsS6Eedb4s3Qyd-33" edge="1">
          <mxGeometry relative="1" as="geometry">
            <mxPoint x="664" y="500" as="targetPoint" />
          </mxGeometry>
        </mxCell>
        <mxCell id="_BHGbHKsS6Eedb4s3Qyd-27" value="No" style="edgeLabel;html=1;align=center;verticalAlign=middle;resizable=0;points=[];spacing=10;spacingTop=0;spacingBottom=0;spacingLeft=0;spacingRight=0;fontSize=14;fontFamily=Helvetica;" parent="_BHGbHKsS6Eedb4s3Qyd-26" vertex="1" connectable="0">
          <mxGeometry x="0.0678" relative="1" as="geometry">
            <mxPoint x="-7" as="offset" />
          </mxGeometry>
        </mxCell>
        <mxCell id="kX5T7t5H8RtnT3tW7cQk-12" value="" style="edgeStyle=orthogonalEdgeStyle;rounded=0;orthogonalLoop=1;jettySize=auto;html=1;fontSize=14;spacing=10;spacingTop=0;spacingLeft=0;spacingBottom=0;spacingRight=0;shadow=0;fontFamily=Helvetica;" parent="WIyWlLk6GJQsqaUBKTNV-1" source="_BHGbHKsS6Eedb4s3Qyd-28" target="_BHGbHKsS6Eedb4s3Qyd-39" edge="1">
          <mxGeometry relative="1" as="geometry" />
        </mxCell>
        <mxCell id="kX5T7t5H8RtnT3tW7cQk-17" value="Yes" style="edgeLabel;html=1;align=center;verticalAlign=middle;resizable=0;points=[];fontSize=14;spacing=10;spacingTop=0;spacingLeft=0;spacingBottom=0;spacingRight=0;fontFamily=Helvetica;" parent="kX5T7t5H8RtnT3tW7cQk-12" vertex="1" connectable="0">
          <mxGeometry x="-0.1926" y="-1" relative="1" as="geometry">
            <mxPoint as="offset" />
          </mxGeometry>
        </mxCell>
        <mxCell id="_BHGbHKsS6Eedb4s3Qyd-28" value="&lt;p style=&quot;line-height: 120%;&quot;&gt;Is “customerTotal” &amp;lt; 4?&lt;br&gt;&lt;/p&gt;" style="rhombus;whiteSpace=wrap;html=1;strokeWidth=2;rounded=1;arcSize=12;verticalAlign=middle;horizontal=1;spacing=10;spacingBottom=0;spacingTop=0;spacingLeft=15;spacingRight=15;fontSize=14;fontFamily=Helvetica;" parent="WIyWlLk6GJQsqaUBKTNV-1" vertex="1">
          <mxGeometry x="428" y="430" width="140" height="140" as="geometry" />
        </mxCell>
        <mxCell id="kX5T7t5H8RtnT3tW7cQk-13" value="" style="edgeStyle=orthogonalEdgeStyle;rounded=0;orthogonalLoop=1;jettySize=auto;html=1;fontSize=14;spacing=10;spacingTop=0;spacingLeft=0;spacingBottom=0;spacingRight=0;shadow=0;fontFamily=Helvetica;" parent="WIyWlLk6GJQsqaUBKTNV-1" source="_BHGbHKsS6Eedb4s3Qyd-33" target="kX5T7t5H8RtnT3tW7cQk-9" edge="1">
          <mxGeometry relative="1" as="geometry" />
        </mxCell>
        <mxCell id="kX5T7t5H8RtnT3tW7cQk-18" value="Yes" style="edgeLabel;html=1;align=center;verticalAlign=middle;resizable=0;points=[];fontSize=14;spacing=10;spacingTop=0;spacingLeft=0;spacingBottom=0;spacingRight=0;fontFamily=Helvetica;" parent="kX5T7t5H8RtnT3tW7cQk-13" vertex="1" connectable="0">
          <mxGeometry x="-0.1926" relative="1" as="geometry">
            <mxPoint as="offset" />
          </mxGeometry>
        </mxCell>
        <mxCell id="kX5T7t5H8RtnT3tW7cQk-14" style="edgeStyle=orthogonalEdgeStyle;rounded=0;orthogonalLoop=1;jettySize=auto;html=1;entryX=0.5;entryY=0;entryDx=0;entryDy=0;fontSize=14;spacing=10;spacingTop=0;spacingLeft=0;spacingBottom=0;spacingRight=0;fontFamily=Helvetica;" parent="WIyWlLk6GJQsqaUBKTNV-1" source="_BHGbHKsS6Eedb4s3Qyd-33" target="kX5T7t5H8RtnT3tW7cQk-10" edge="1">
          <mxGeometry relative="1" as="geometry" />
        </mxCell>
        <mxCell id="kX5T7t5H8RtnT3tW7cQk-19" value="No" style="edgeLabel;html=1;align=center;verticalAlign=middle;resizable=0;points=[];fontSize=14;spacing=10;spacingTop=0;spacingLeft=0;spacingBottom=0;spacingRight=0;fontFamily=Helvetica;" parent="kX5T7t5H8RtnT3tW7cQk-14" vertex="1" connectable="0">
          <mxGeometry x="-0.6823" y="2" relative="1" as="geometry">
            <mxPoint as="offset" />
          </mxGeometry>
        </mxCell>
        <mxCell id="_BHGbHKsS6Eedb4s3Qyd-33" value="&lt;p style=&quot;line-height: 120%;&quot;&gt;Is “customerTotal” &amp;lt; 5?&lt;br style=&quot;font-size: 14px;&quot;&gt;&lt;/p&gt;" style="rhombus;whiteSpace=wrap;html=1;strokeWidth=2;rounded=1;arcSize=12;verticalAlign=middle;horizontal=1;spacing=10;spacingBottom=0;spacingTop=0;spacingLeft=15;spacingRight=15;fontSize=14;fontFamily=Helvetica;" parent="WIyWlLk6GJQsqaUBKTNV-1" vertex="1">
          <mxGeometry x="608" y="430" width="140" height="140" as="geometry" />
        </mxCell>
        <mxCell id="_BHGbHKsS6Eedb4s3Qyd-21" style="edgeStyle=orthogonalEdgeStyle;rounded=0;orthogonalLoop=1;jettySize=auto;html=1;entryX=0;entryY=0.5;entryDx=0;entryDy=0;spacing=10;spacingTop=0;spacingBottom=0;spacingLeft=0;spacingRight=0;fontSize=14;shadow=0;fontFamily=Helvetica;" parent="WIyWlLk6GJQsqaUBKTNV-1" source="_BHGbHKsS6Eedb4s3Qyd-23" target="_BHGbHKsS6Eedb4s3Qyd-28" edge="1">
          <mxGeometry relative="1" as="geometry">
            <mxPoint x="474" y="500" as="targetPoint" />
          </mxGeometry>
        </mxCell>
        <mxCell id="_BHGbHKsS6Eedb4s3Qyd-22" value="No" style="edgeLabel;html=1;align=center;verticalAlign=middle;resizable=0;points=[];spacing=10;spacingTop=0;spacingBottom=0;spacingLeft=0;spacingRight=0;fontSize=14;fontFamily=Helvetica;" parent="_BHGbHKsS6Eedb4s3Qyd-21" vertex="1" connectable="0">
          <mxGeometry x="0.0678" relative="1" as="geometry">
            <mxPoint x="-5" as="offset" />
          </mxGeometry>
        </mxCell>
        <mxCell id="kX5T7t5H8RtnT3tW7cQk-11" value="" style="edgeStyle=orthogonalEdgeStyle;rounded=0;orthogonalLoop=1;jettySize=auto;html=1;fontSize=14;spacing=10;spacingTop=0;spacingLeft=0;spacingBottom=0;spacingRight=0;shadow=0;fontFamily=Helvetica;" parent="WIyWlLk6GJQsqaUBKTNV-1" source="_BHGbHKsS6Eedb4s3Qyd-23" target="kX5T7t5H8RtnT3tW7cQk-8" edge="1">
          <mxGeometry relative="1" as="geometry" />
        </mxCell>
        <mxCell id="kX5T7t5H8RtnT3tW7cQk-16" value="Yes" style="edgeLabel;html=1;align=center;verticalAlign=middle;resizable=0;points=[];fontSize=14;spacing=10;spacingTop=0;spacingLeft=0;spacingBottom=0;spacingRight=0;fontFamily=Helvetica;" parent="kX5T7t5H8RtnT3tW7cQk-11" vertex="1" connectable="0">
          <mxGeometry x="-0.2492" relative="1" as="geometry">
            <mxPoint as="offset" />
          </mxGeometry>
        </mxCell>
        <mxCell id="_BHGbHKsS6Eedb4s3Qyd-23" value="&lt;p style=&quot;line-height: 120%;&quot;&gt;Is “customerTotal” &amp;lt; 3?&lt;br&gt;&lt;/p&gt;" style="rhombus;whiteSpace=wrap;html=1;strokeWidth=2;rounded=1;arcSize=12;verticalAlign=middle;horizontal=1;spacing=10;spacingBottom=0;spacingTop=0;spacingLeft=15;spacingRight=15;fontSize=14;fontFamily=Helvetica;" parent="WIyWlLk6GJQsqaUBKTNV-1" vertex="1">
          <mxGeometry x="248" y="430" width="140" height="140" as="geometry" />
        </mxCell>
        <mxCell id="_BHGbHKsS6Eedb4s3Qyd-52" style="edgeStyle=orthogonalEdgeStyle;rounded=0;orthogonalLoop=1;jettySize=auto;html=1;entryX=0.5;entryY=-0.047;entryDx=0;entryDy=0;entryPerimeter=0;fontSize=14;spacing=10;spacingTop=0;spacingLeft=0;spacingBottom=0;spacingRight=0;shadow=0;fontFamily=Helvetica;" parent="WIyWlLk6GJQsqaUBKTNV-1" source="_BHGbHKsS6Eedb4s3Qyd-38" target="_BHGbHKsS6Eedb4s3Qyd-53" edge="1">
          <mxGeometry relative="1" as="geometry">
            <mxPoint x="144" y="919.9999999999998" as="targetPoint" />
          </mxGeometry>
        </mxCell>
        <mxCell id="_BHGbHKsS6Eedb4s3Qyd-38" value="&lt;div&gt;Output “discount”&lt;/div&gt;" style="shape=parallelogram;html=1;strokeWidth=2;perimeter=parallelogramPerimeter;whiteSpace=wrap;rounded=1;arcSize=12;size=0.23;spacing=10;spacingTop=0;spacingBottom=0;spacingLeft=20;spacingRight=20;fontSize=14;fontFamily=Helvetica;" parent="WIyWlLk6GJQsqaUBKTNV-1" vertex="1">
          <mxGeometry x="60" y="790" width="168" height="60" as="geometry" />
        </mxCell>
        <mxCell id="_BHGbHKsS6Eedb4s3Qyd-51" style="edgeStyle=orthogonalEdgeStyle;rounded=0;orthogonalLoop=1;jettySize=auto;html=1;exitX=0.5;exitY=1;exitDx=0;exitDy=0;fontSize=14;spacing=10;spacingTop=0;spacingLeft=0;spacingBottom=0;spacingRight=0;shadow=0;fontFamily=Helvetica;" parent="WIyWlLk6GJQsqaUBKTNV-1" source="kX5T7t5H8RtnT3tW7cQk-8" edge="1">
          <mxGeometry relative="1" as="geometry">
            <mxPoint x="518.4166666666667" y="690" as="sourcePoint" />
            <Array as="points">
              <mxPoint x="318" y="760" />
              <mxPoint x="145" y="760" />
            </Array>
            <mxPoint x="145" y="760" as="targetPoint" />
          </mxGeometry>
        </mxCell>
        <mxCell id="kX5T7t5H8RtnT3tW7cQk-20" style="edgeStyle=orthogonalEdgeStyle;rounded=0;orthogonalLoop=1;jettySize=auto;html=1;fontSize=14;spacing=10;spacingTop=0;spacingLeft=0;spacingBottom=0;spacingRight=0;shadow=0;fontFamily=Helvetica;" parent="WIyWlLk6GJQsqaUBKTNV-1" source="_BHGbHKsS6Eedb4s3Qyd-39" edge="1">
          <mxGeometry relative="1" as="geometry">
            <mxPoint x="320" y="760" as="targetPoint" />
            <Array as="points">
              <mxPoint x="498" y="760" />
              <mxPoint x="320" y="760" />
            </Array>
          </mxGeometry>
        </mxCell>
        <mxCell id="_BHGbHKsS6Eedb4s3Qyd-39" value="&amp;nbsp;add (ticketTotal x 0.15) to Order.discountTotal" style="rounded=1;whiteSpace=wrap;html=1;absoluteArcSize=1;arcSize=14;strokeWidth=2;spacing=10;spacingTop=0;spacingBottom=0;spacingLeft=0;spacingRight=0;fontSize=14;fontFamily=Helvetica;" parent="WIyWlLk6GJQsqaUBKTNV-1" vertex="1">
          <mxGeometry x="426" y="610" width="144" height="120" as="geometry" />
        </mxCell>
        <mxCell id="_BHGbHKsS6Eedb4s3Qyd-53" value="End/Next Step" style="strokeWidth=2;html=1;shape=mxgraph.flowchart.terminator;whiteSpace=wrap;spacing=10;spacingTop=0;spacingBottom=0;spacingLeft=0;spacingRight=0;fontSize=14;fontFamily=Helvetica;" parent="WIyWlLk6GJQsqaUBKTNV-1" vertex="1">
          <mxGeometry x="60" y="880" width="168" height="50" as="geometry" />
        </mxCell>
        <mxCell id="kX5T7t5H8RtnT3tW7cQk-8" value="add (ticketTotal x 0.05) to Order.discountTotal" style="rounded=1;whiteSpace=wrap;html=1;absoluteArcSize=1;arcSize=14;strokeWidth=2;spacing=10;spacingTop=0;spacingBottom=0;spacingLeft=0;spacingRight=0;fontSize=14;fontFamily=Helvetica;" parent="WIyWlLk6GJQsqaUBKTNV-1" vertex="1">
          <mxGeometry x="246" y="610" width="144" height="120" as="geometry" />
        </mxCell>
        <mxCell id="kX5T7t5H8RtnT3tW7cQk-21" style="edgeStyle=orthogonalEdgeStyle;rounded=0;orthogonalLoop=1;jettySize=auto;html=1;fontSize=14;spacing=10;spacingTop=0;spacingLeft=0;spacingBottom=0;spacingRight=0;shadow=0;fontFamily=Helvetica;" parent="WIyWlLk6GJQsqaUBKTNV-1" source="kX5T7t5H8RtnT3tW7cQk-9" edge="1">
          <mxGeometry relative="1" as="geometry">
            <mxPoint x="500" y="760" as="targetPoint" />
            <Array as="points">
              <mxPoint x="678" y="760" />
              <mxPoint x="500" y="760" />
            </Array>
          </mxGeometry>
        </mxCell>
        <mxCell id="kX5T7t5H8RtnT3tW7cQk-9" value="&amp;nbsp;add (ticketTotal x 0.2) to Order.discountTotal" style="rounded=1;whiteSpace=wrap;html=1;absoluteArcSize=1;arcSize=14;strokeWidth=2;spacing=10;spacingTop=0;spacingBottom=0;spacingLeft=0;spacingRight=0;fontSize=14;fontFamily=Helvetica;" parent="WIyWlLk6GJQsqaUBKTNV-1" vertex="1">
          <mxGeometry x="606" y="610" width="144" height="120" as="geometry" />
        </mxCell>
        <mxCell id="kX5T7t5H8RtnT3tW7cQk-22" style="edgeStyle=orthogonalEdgeStyle;rounded=0;orthogonalLoop=1;jettySize=auto;html=1;fontSize=14;spacing=10;spacingTop=0;spacingLeft=0;spacingBottom=0;spacingRight=0;shadow=0;fontFamily=Helvetica;" parent="WIyWlLk6GJQsqaUBKTNV-1" source="kX5T7t5H8RtnT3tW7cQk-10" edge="1">
          <mxGeometry relative="1" as="geometry">
            <mxPoint x="680" y="760" as="targetPoint" />
            <Array as="points">
              <mxPoint x="860" y="760" />
              <mxPoint x="680" y="760" />
            </Array>
          </mxGeometry>
        </mxCell>
        <mxCell id="kX5T7t5H8RtnT3tW7cQk-10" value="add (ticketTotal x 0.3) to Order.discountTotal" style="rounded=1;whiteSpace=wrap;html=1;absoluteArcSize=1;arcSize=14;strokeWidth=2;spacing=10;spacingTop=0;spacingBottom=0;spacingLeft=0;spacingRight=0;fontSize=14;fontFamily=Helvetica;" parent="WIyWlLk6GJQsqaUBKTNV-1" vertex="1">
          <mxGeometry x="790" y="610" width="140" height="120" as="geometry" />
        </mxCell>
        <mxCell id="Uk-PvzAj1wYRCCwDQagz-3" value="" style="edgeStyle=orthogonalEdgeStyle;rounded=0;orthogonalLoop=1;jettySize=auto;html=1;fontSize=14;shadow=0;fontFamily=Helvetica;" parent="WIyWlLk6GJQsqaUBKTNV-1" source="Uk-PvzAj1wYRCCwDQagz-1" target="_BHGbHKsS6Eedb4s3Qyd-38" edge="1">
          <mxGeometry relative="1" as="geometry" />
        </mxCell>
        <mxCell id="Uk-PvzAj1wYRCCwDQagz-1" value="add 0 to Order.discountTotal" style="rounded=1;whiteSpace=wrap;html=1;absoluteArcSize=1;arcSize=14;strokeWidth=2;spacing=10;spacingTop=0;spacingBottom=0;spacingLeft=0;spacingRight=0;fontSize=14;fontFamily=Helvetica;" parent="WIyWlLk6GJQsqaUBKTNV-1" vertex="1">
          <mxGeometry x="74" y="610" width="140" height="120" as="geometry" />
        </mxCell>
      </root>
    </mxGraphModel>
  </diagram>
</mxfile>
